# xmcd
#
# Track frame offsets:
#	150
#	23553
#	42680
#	58018
#	80365
#	99585
#	122173
#	138465
#	157878
#	172015
#	188095
#	202960
#	220710
#	236355
#	250025
#	271493
#
# Disc length: 4065
#
# Revision: 3
# Processed by: cddbd v1.5.1PL0 Copyright (c) Steve Scherf et al.
# Submitted via: ExactAudioCopy v0.90b3
# Normalized: r2:DSETVAR1
#
DISCID=d80fdf10
DTITLE=Various Artist - Moonshine Blues
DYEAR=1992
DGENRE=Blues
TTITLE0=Albert King - Stop
TTITLE1=The Duke Robillard Band - The High Cost of Loving
TTITLE2=Anson Funderburgh and The Rockets feat. Sam Myers - I'm Innocent
TTITLE3=Joe Louis Walker - I Didn't Know
TTITLE4=Robert Ward - Your Love is Amazing
TTITLE5=Bobby King and Terry Evans - One Way Ticket to Memphis
TTITLE6=Little Jimmy King &The Memphis Soul Survivors - Wild Woman
TTITLE7=Ronnie Earl and The Broadcasters - Surrounded by Love
TTITLE8=James Cotton - Straighten up Baby
TTITLE9=Smokin' Joe Kubek Band - Natural Born Lover
TTITLE10=Rory Block - The Spirit Returns
TTITLE11=Mike Morgan and The Crawl - You Ain't Like You Used to Be
TTITLE12=James Harman Band - Stranger Blues
TTITLE13=Bobby Radcliff - 4 O'Clock in the morning
TTITLE14=Earl King - Time for the Sun to Rise
TTITLE15=Champion Jack Dupree - They Gave Me Away
EXTD=
EXTT0=Albert King
EXTT1=The Duke Robillard Band
EXTT2=Anson Funderburgh and The Rockets feat. Sam Myers
EXTT3=Joe Louis Walker
EXTT4=Robert Ward
EXTT5=Bobby King and Terry Evans
EXTT6=Little Jimmy King and The Memphis Soul Survivors
EXTT7=Ronnie Earl and The Broadcasters
EXTT8=James Cotton
EXTT9=Smokin' Joe Kubek Band
EXTT10=Rory Block
EXTT11=Mike Morgan and The Crawl
EXTT12=James Harman Band
EXTT13=Bobby Radcliff
EXTT14=Earl King
EXTT15=Champion Jack Dupree
PLAYORDER=
